<mxfile host="app.diagrams.net" agent="Mozilla/5.0 (Windows NT 10.0; Win64; x64) AppleWebKit/537.36 (KHTML, like Gecko) Chrome/134.0.0.0 Safari/537.36" version="26.2.9">
  <diagram name="Page-1" id="qDEPfq7nUCZZFJBucR8H">
    <mxGraphModel dx="1283" dy="1662" grid="1" gridSize="10" guides="1" tooltips="1" connect="1" arrows="1" fold="1" page="1" pageScale="1" pageWidth="850" pageHeight="1100" math="0" shadow="0">
      <root>
        <mxCell id="0" />
        <mxCell id="1" parent="0" />
        <mxCell id="LPHzBaGyfDh75u3msq4r-2" value="Start&amp;nbsp;" style="strokeWidth=2;html=1;shape=mxgraph.flowchart.terminator;whiteSpace=wrap;" parent="1" vertex="1">
          <mxGeometry x="340" width="170" height="50" as="geometry" />
        </mxCell>
        <mxCell id="LPHzBaGyfDh75u3msq4r-3" value="" style="endArrow=classic;html=1;rounded=0;" parent="1" edge="1">
          <mxGeometry width="50" height="50" relative="1" as="geometry">
            <mxPoint x="424" y="50" as="sourcePoint" />
            <mxPoint x="424" y="100" as="targetPoint" />
          </mxGeometry>
        </mxCell>
        <mxCell id="LPHzBaGyfDh75u3msq4r-4" value="Initialize count = 1&lt;div&gt;Initialize num = 0&lt;/div&gt;" style="rounded=1;whiteSpace=wrap;html=1;absoluteArcSize=1;arcSize=14;strokeWidth=2;" parent="1" vertex="1">
          <mxGeometry x="340" y="100" width="170" height="50" as="geometry" />
        </mxCell>
        <mxCell id="LPHzBaGyfDh75u3msq4r-5" value="" style="endArrow=classic;html=1;rounded=0;exitX=0.5;exitY=1;exitDx=0;exitDy=0;" parent="1" source="LPHzBaGyfDh75u3msq4r-4" edge="1">
          <mxGeometry width="50" height="50" relative="1" as="geometry">
            <mxPoint x="424" y="140" as="sourcePoint" />
            <mxPoint x="424" y="200" as="targetPoint" />
          </mxGeometry>
        </mxCell>
        <mxCell id="LPHzBaGyfDh75u3msq4r-7" value="Count &amp;lt;=20" style="strokeWidth=2;html=1;shape=mxgraph.flowchart.decision;whiteSpace=wrap;" parent="1" vertex="1">
          <mxGeometry x="335" y="200" width="180" height="80" as="geometry" />
        </mxCell>
        <mxCell id="LPHzBaGyfDh75u3msq4r-8" value="" style="endArrow=classic;html=1;rounded=0;" parent="1" edge="1">
          <mxGeometry width="50" height="50" relative="1" as="geometry">
            <mxPoint x="514" y="240" as="sourcePoint" />
            <mxPoint x="574" y="240" as="targetPoint" />
          </mxGeometry>
        </mxCell>
        <mxCell id="LPHzBaGyfDh75u3msq4r-20" value="" style="edgeStyle=orthogonalEdgeStyle;rounded=0;orthogonalLoop=1;jettySize=auto;html=1;" parent="1" source="LPHzBaGyfDh75u3msq4r-11" target="LPHzBaGyfDh75u3msq4r-12" edge="1">
          <mxGeometry relative="1" as="geometry" />
        </mxCell>
        <mxCell id="LPHzBaGyfDh75u3msq4r-11" value="num = numb+2" style="rounded=0;whiteSpace=wrap;html=1;" parent="1" vertex="1">
          <mxGeometry x="580" y="210" width="190" height="60" as="geometry" />
        </mxCell>
        <mxCell id="LPHzBaGyfDh75u3msq4r-21" value="" style="edgeStyle=orthogonalEdgeStyle;rounded=0;orthogonalLoop=1;jettySize=auto;html=1;" parent="1" source="LPHzBaGyfDh75u3msq4r-12" target="LPHzBaGyfDh75u3msq4r-13" edge="1">
          <mxGeometry relative="1" as="geometry" />
        </mxCell>
        <mxCell id="LPHzBaGyfDh75u3msq4r-12" value="Display numb" style="rounded=0;whiteSpace=wrap;html=1;" parent="1" vertex="1">
          <mxGeometry x="580" y="320" width="190" height="60" as="geometry" />
        </mxCell>
        <mxCell id="LPHzBaGyfDh75u3msq4r-13" value="count = count+1" style="rounded=0;whiteSpace=wrap;html=1;" parent="1" vertex="1">
          <mxGeometry x="580" y="430" width="190" height="60" as="geometry" />
        </mxCell>
        <mxCell id="LPHzBaGyfDh75u3msq4r-15" value="" style="endArrow=classic;startArrow=classic;html=1;rounded=0;entryX=0.5;entryY=1;entryDx=0;entryDy=0;entryPerimeter=0;" parent="1" target="LPHzBaGyfDh75u3msq4r-7" edge="1">
          <mxGeometry width="50" height="50" relative="1" as="geometry">
            <mxPoint x="425" y="570" as="sourcePoint" />
            <mxPoint x="450" y="340" as="targetPoint" />
          </mxGeometry>
        </mxCell>
        <mxCell id="LPHzBaGyfDh75u3msq4r-16" value="End" style="ellipse;whiteSpace=wrap;html=1;" parent="1" vertex="1">
          <mxGeometry x="345" y="570" width="160" height="60" as="geometry" />
        </mxCell>
        <mxCell id="LPHzBaGyfDh75u3msq4r-23" value="" style="endArrow=classic;html=1;rounded=0;entryX=1;entryY=0.5;entryDx=0;entryDy=0;" parent="1" target="LPHzBaGyfDh75u3msq4r-16" edge="1">
          <mxGeometry width="50" height="50" relative="1" as="geometry">
            <mxPoint x="680" y="600" as="sourcePoint" />
            <mxPoint x="530" y="600" as="targetPoint" />
          </mxGeometry>
        </mxCell>
        <mxCell id="LPHzBaGyfDh75u3msq4r-24" value="" style="endArrow=none;html=1;rounded=0;" parent="1" edge="1">
          <mxGeometry width="50" height="50" relative="1" as="geometry">
            <mxPoint x="680" y="600" as="sourcePoint" />
            <mxPoint x="680" y="490" as="targetPoint" />
          </mxGeometry>
        </mxCell>
        <mxCell id="LPHzBaGyfDh75u3msq4r-25" value="" style="endArrow=classic;html=1;rounded=0;" parent="1" edge="1">
          <mxGeometry width="50" height="50" relative="1" as="geometry">
            <mxPoint x="379" y="-760" as="sourcePoint" />
            <mxPoint x="379" y="-710" as="targetPoint" />
          </mxGeometry>
        </mxCell>
        <mxCell id="LPHzBaGyfDh75u3msq4r-27" value="" style="endArrow=classic;html=1;rounded=0;exitX=0.5;exitY=1;exitDx=0;exitDy=0;" parent="1" edge="1">
          <mxGeometry width="50" height="50" relative="1" as="geometry">
            <mxPoint x="380" y="-660" as="sourcePoint" />
            <mxPoint x="379" y="-610" as="targetPoint" />
          </mxGeometry>
        </mxCell>
        <mxCell id="LPHzBaGyfDh75u3msq4r-28" value="While Count &amp;lt;= 10" style="strokeWidth=2;html=1;shape=mxgraph.flowchart.decision;whiteSpace=wrap;" parent="1" vertex="1">
          <mxGeometry x="290" y="-610" width="180" height="80" as="geometry" />
        </mxCell>
        <mxCell id="LPHzBaGyfDh75u3msq4r-29" value="" style="endArrow=classic;html=1;rounded=0;" parent="1" edge="1">
          <mxGeometry width="50" height="50" relative="1" as="geometry">
            <mxPoint x="469" y="-570" as="sourcePoint" />
            <mxPoint x="380" y="-300" as="targetPoint" />
            <Array as="points">
              <mxPoint x="560" y="-570" />
              <mxPoint x="560" y="-520" />
              <mxPoint x="560" y="-440" />
              <mxPoint x="560" y="-300" />
            </Array>
          </mxGeometry>
        </mxCell>
        <mxCell id="LPHzBaGyfDh75u3msq4r-30" value="" style="edgeStyle=orthogonalEdgeStyle;rounded=0;orthogonalLoop=1;jettySize=auto;html=1;" parent="1" edge="1">
          <mxGeometry relative="1" as="geometry">
            <mxPoint x="630" y="-540" as="sourcePoint" />
            <mxPoint x="630" y="-490" as="targetPoint" />
          </mxGeometry>
        </mxCell>
        <mxCell id="LPHzBaGyfDh75u3msq4r-31" value="" style="edgeStyle=orthogonalEdgeStyle;rounded=0;orthogonalLoop=1;jettySize=auto;html=1;" parent="1" edge="1">
          <mxGeometry relative="1" as="geometry">
            <mxPoint x="630" y="-430" as="sourcePoint" />
            <mxPoint x="630" y="-380" as="targetPoint" />
          </mxGeometry>
        </mxCell>
        <mxCell id="LPHzBaGyfDh75u3msq4r-33" value="" style="endArrow=classic;html=1;rounded=0;entryX=1;entryY=0.5;entryDx=0;entryDy=0;" parent="1" edge="1">
          <mxGeometry width="50" height="50" relative="1" as="geometry">
            <mxPoint x="635" y="-210" as="sourcePoint" />
            <mxPoint x="460" y="-210" as="targetPoint" />
          </mxGeometry>
        </mxCell>
        <mxCell id="LPHzBaGyfDh75u3msq4r-34" value="" style="endArrow=none;html=1;rounded=0;" parent="1" edge="1">
          <mxGeometry width="50" height="50" relative="1" as="geometry">
            <mxPoint x="635" y="-210" as="sourcePoint" />
            <mxPoint x="635" y="-320" as="targetPoint" />
          </mxGeometry>
        </mxCell>
        <mxCell id="LPHzBaGyfDh75u3msq4r-35" value="Start&amp;nbsp;" style="ellipse;whiteSpace=wrap;html=1;" parent="1" vertex="1">
          <mxGeometry x="300" y="-820" width="160" height="60" as="geometry" />
        </mxCell>
        <mxCell id="LPHzBaGyfDh75u3msq4r-37" value="Initialize count =1" style="rounded=0;whiteSpace=wrap;html=1;" parent="1" vertex="1">
          <mxGeometry x="290" y="-710" width="180" height="60" as="geometry" />
        </mxCell>
        <mxCell id="LPHzBaGyfDh75u3msq4r-39" value="&lt;b&gt;&lt;font style=&quot;font-size: 18px;&quot; face=&quot;Times New Roman&quot;&gt;Yes&lt;/font&gt;&lt;/b&gt;" style="text;html=1;align=center;verticalAlign=middle;resizable=0;points=[];autosize=1;strokeColor=none;fillColor=none;" parent="1" vertex="1">
          <mxGeometry x="470" y="-600" width="50" height="40" as="geometry" />
        </mxCell>
        <mxCell id="LPHzBaGyfDh75u3msq4r-40" value="" style="endArrow=classic;html=1;rounded=0;" parent="1" edge="1">
          <mxGeometry width="50" height="50" relative="1" as="geometry">
            <mxPoint x="379.47" y="-530" as="sourcePoint" />
            <mxPoint x="379" y="-470" as="targetPoint" />
          </mxGeometry>
        </mxCell>
      </root>
    </mxGraphModel>
  </diagram>
</mxfile>
